<svg xmlns="http://www.w3.org/2000/svg" version="1" x="0" y="0" viewBox="0 0 720 640" enable-background="new 0 0 720 640" xml:space="preserve"><text style="text-shadow: 10px 10px 0 rgba(1,255,223, 0.6), 20px 20px 0 rgba(255,0,0, 0.6), 30px 30px 0 rgba(1,255,223, 0.6), 40px 40px 0 rgba(255,0,0, 0.6),;" transform="matrix(1 0 0 1 98.3608 217.1597)"><tspan x="0" y="0" fill="#ECF230" font-family="'Verdana-Bold'" font-size="99">NOM</tspan><tspan x="262" y="0" fill="#F23869" font-family="'Verdana-Bold'" font-size="99">MON</tspan><tspan x="-40" y="119" fill="#F23869" font-family="'Verdana-Bold'" font-size="99">BROT</tspan><tspan x="265" y="119" fill="#ECF230" font-family="'Verdana-Bold'" font-size="99">HERS</tspan></text><circle fill="#FF5A35" cx="224" cy="181" r="39"/><circle fill="#ECF230" cx="205" cy="167" r="7"/><circle fill="#ECF230" cx="224" cy="165" r="8"/><circle fill="#ECF230" cx="245" cy="167" r="8"/><circle cx="204" cy="167" r="3"/><circle cx="225" cy="165" r="3"/><circle cx="245" cy="167" r="3"/><ellipse cx="225" cy="199" rx="12" ry="12"/><path fill="#FFFFFF" d="M219 188l5 8 4-8C228 187 224 186 219 188z"/><circle fill="#32D95C" cx="495" cy="181" r="40"/><circle fill="#ECF230" cx="495" cy="167" r="13"/><circle cx="495" cy="167" r="6"/><ellipse cx="495" cy="200" rx="13" ry="13"/><path fill="#FFFFFF" d="M491 212l3-8 5 8C500 212 495 214 491 212z"/></svg>