<svg xmlns="http://www.w3.org/2000/svg" xmlns:xlink="http://www.w3.org/1999/xlink" version="1.0" x="0px" y="0px" viewBox="0 0 720 640" enable-background="new 0 0 720 640" xml:space="preserve"><text style="    text-shadow: 0 0 10px #fff, 0 0 20px #fff, 0 0 30px #fff, 0 0 40px #ff00de, 0 0 70px #ff00de, 0 0 80px #ff00de, 0 0 100px #ff00de, 0 0 150px #ff00de;" transform="matrix(1 0 0 1 101.791 218.1597)"><tspan x="0" y="0" fill="#ECF230" font-family="'Arial-Black'" font-size="98.9314px">NOM</tspan><tspan x="258.2" y="0" fill="#F23869" font-family="'Arial-Black'" font-size="98.9314px">MON</tspan><tspan x="-46.8" y="118.7" fill="#F23869" font-family="'Arial-Black'" font-size="98.9314px">BROT</tspan><tspan x="261" y="118.7" fill="#ECF230" font-family="'Arial-Black'" font-size="98.9314px">HERS</tspan></text><g><g><circle fill="#FF5A35" cx="225.3" cy="182.3" r="38.8"/></g><circle fill="#ECF230" cx="205.8" cy="168" r="7"/><circle fill="#ECF230" cx="225.4" cy="166.1" r="7.7"/><circle fill="#ECF230" cx="245.9" cy="167.8" r="7.8"/><circle cx="205.4" cy="167.8" r="3"/><circle cx="225.6" cy="166.3" r="3"/><circle cx="245.8" cy="167.8" r="3"/><ellipse cx="225.8" cy="200.2" rx="12.2" ry="12.3"/><path fill="#FFFFFF" d="M219.9 189.4l5.4 7.5l4.1-8.5C229.4 188.4 224.9 186.6 219.9 189.4z"/></g><g><g><circle fill="#32D95C" cx="494.5" cy="183" r="38.5"/></g><circle fill="#ECF230" cx="494.3" cy="169.5" r="12.1"/><circle cx="494.3" cy="169.1" r="5.9"/><ellipse cx="494.5" cy="200.8" rx="12.2" ry="12.2"/><path fill="#FFFFFF" d="M491.1 212.5l3.1-8l5 7.5C499.3 212 494.2 213.9 491.1 212.5z"/></g></svg>